# xmcd
#
# Track frame offsets:
#	150
#	10975
#	24007
#	33933
#	44900
#	54516
#	67168
#	76778
#	89777
#	97857
#	110086
#	119367
#	141500
#	152802
#	164696
#	175607
#	185280
#	194633
#	204513
#
# Disc length: 2866 seconds
#
# Revision: 0
# Processed by: cddbd v1.5.2PL0 Copyright (c) Steve Scherf et al.
# Submitted via: EasyCDDAExtractor 16.0.1.1
#
DISCID=0c0b3013
DTITLE=Dave Dudley - Six Days On The Road
DYEAR=1963
DGENRE=TruckCountry
TTITLE0=Six Days On The Road
TTITLE1=I Feel A Cry Coming On
TTITLE2=Boo On You
TTITLE3=Then I Can Go To Bed
TTITLE4=Last Day In The Mines
TTITLE5=Before My Time
TTITLE6=Taxi-Cab Driver
TTITLE7=That's Pretty Good For Me
TTITLE8=Above And Beyond
TTITLE9=Yesterday's Lover
TTITLE10=Lonely Corner
TTITLE11=Barbara Allen
TTITLE12=Your Only Love
TTITLE13=Maybe I Do
TTITLE14=Rock And Roll Nursery Rhyme
TTITLE15=Ink Dries Quicker Than Tears
TTITLE16=I'll Be Waiting For You
TTITLE17=Under Cover Of The Night
TTITLE18=Please Let Me Prove (My Love For You)
EXTD=
EXTT0=
EXTT1=
EXTT2=
EXTT3=
EXTT4=
EXTT5=
EXTT6=
EXTT7=
EXTT8=
EXTT9=
EXTT10=
EXTT11=
EXTT12=
EXTT13=
EXTT14=
EXTT15=
EXTT16=
EXTT17=
EXTT18=
PLAYORDER=
